<?xml version="1.0" encoding="UTF-8" standalone="no"?>
<!DOCTYPE svg PUBLIC "-//W3C//DTD SVG 1.1//EN" "http://www.w3.org/Graphics/SVG/1.1/DTD/svg11.dtd">
<svg xmlns="http://www.w3.org/2000/svg" version="1.1" width="45" height="45">
  <g style="opacity:1; fill:none; fill-rule:evenodd; fill-opacity:1; stroke:#000000; stroke-width:1.5; stroke-linecap:round; stroke-linejoin:round; stroke-miterlimit:4; stroke-dasharray:none; stroke-opacity:1;">
    <g style="fill:#000000; stroke:#000000; stroke-linecap:butt;"> 
      <path d="m 9,36 c 3.39,-0.5 10.96,0.5 13.5,-2 c 2.54,2.5 10.11,1.5 13.5,2 c 0,0 1.65,0.5 3,2 c -0.68,0.94 -1.65,0.99 -3,0.5 c -3.39,-0.5 -10.96,-0.5 -13.5,-1 c -2.54,0.5 -10.11,0.5 -13.5,1 c -1.35,0.49 -2.32,0.44 -3,-0.5 c 1.35,-1.5 3,-2 3,-2 z"/>
      <path d="m 15,32 c 2.5,2.5 12.5,2.5 15,0 c 0,-1.5 0,-2 0,-2 c 0,-2.5 -2.5,-4 -2.5,-4 c 5,-1.5 6,-11.5 -5,-15.5 c -11,4 -10,14 -5,15.5 c 0,0 -2.5,1.5 -2.5,4 c 0,2 0,0.5 0,2 z"/>
      <path d="m 25,8 a 2.5,2.5 0 1 1 -5,0 a 2.5,2.5 0 1 1 5,0 z"/>
    </g>
    <path d="m 17.5,26 10,0 m -2.5,-4.5 -5,0 m -5,2.5 15,0" style="fill:none; stroke:#ffffff; stroke-linejoin:miter;"/>
  </g>
</svg>
